<svg id="Livello_1" data-name="Livello 1" xmlns="http://www.w3.org/2000/svg" xmlns:xlink="http://www.w3.org/1999/xlink" viewBox="0 0 228.64 123.45"><defs><style>.cls-1{fill:none;}.cls-2{fill:#ef8121;fill-opacity:0.4;}.cls-3{fill:#ea5211;}.cls-4{fill:#fafafa;}.cls-5{clip-path:url(#clip-path);}.cls-6{clip-path:url(#clip-path-2);}.cls-7{clip-path:url(#clip-path-4);}.cls-8{clip-path:url(#clip-path-7);}.cls-9{clip-path:url(#clip-path-10);}</style><clipPath id="clip-path"><rect class="cls-1" x="24.28" y="12.17" width="69.33" height="90.67"/></clipPath><clipPath id="clip-path-2"><rect class="cls-1" x="17.2" y="12.47" width="70" height="83" transform="translate(-21.23 38.31) rotate(-33.92)"/></clipPath><clipPath id="clip-path-4"><rect class="cls-1" x="45.61" y="48.17" width="17.33" height="17.33"/></clipPath><clipPath id="clip-path-7"><rect class="cls-1" x="53.61" y="66.83" width="4" height="4"/></clipPath><clipPath id="clip-path-10"><rect class="cls-1" x="64.28" y="52.17" width="4" height="4"/></clipPath></defs><path class="cls-2" d="M134.77,30.16a7.48,7.48,0,0,0-3.06-2.81,9.84,9.84,0,0,0-4.59-1,9.73,9.73,0,0,0-7.68,3.16,12.37,12.37,0,0,0-2.79,8.5q0,6,3,9.13c2,2.08,4.9,3.12,8.72,3.12a10,10,0,0,0,9.69-6.12h-13V34.85h24.11V47.37a23.4,23.4,0,0,1-4.44,6.92,23,23,0,0,1-7.42,5.31,24.24,24.24,0,0,1-10.21,2.06,24.9,24.9,0,0,1-12.35-3,20.94,20.94,0,0,1-8.29-8.35A25.22,25.22,0,0,1,103.54,38a25,25,0,0,1,2.94-12.22,20.8,20.8,0,0,1,8.27-8.36,24.67,24.67,0,0,1,12.31-3q8.77,0,14.5,4.21a17.87,17.87,0,0,1,7.11,11.52Z"/><path class="cls-2" d="M173.36,14.89a26.79,26.79,0,0,1,12.81,2.94A20.53,20.53,0,0,1,194.63,26a24.19,24.19,0,0,1,3,12.07,23.78,23.78,0,0,1-3,12,21.35,21.35,0,0,1-8.5,8.27,26.23,26.23,0,0,1-12.75,3H155V14.89Zm-1,35c3.77,0,6.74-1,8.89-3.08s3.23-5,3.23-8.77-1.08-6.77-3.23-8.86-5.12-3.14-8.89-3.14H167.9V49.93Z"/><path class="cls-3" d="M134.77,30.16a7.48,7.48,0,0,0-3.06-2.81,9.84,9.84,0,0,0-4.59-1,9.73,9.73,0,0,0-7.68,3.16,12.37,12.37,0,0,0-2.79,8.5q0,6,3,9.13c2,2.08,4.9,3.12,8.72,3.12a10,10,0,0,0,9.69-6.12h-13V34.85h24.11V47.37a23.4,23.4,0,0,1-4.44,6.92,23,23,0,0,1-7.42,5.31,24.24,24.24,0,0,1-10.21,2.06,24.9,24.9,0,0,1-12.35-3,20.94,20.94,0,0,1-8.29-8.35A25.22,25.22,0,0,1,103.54,38a25,25,0,0,1,2.94-12.22,20.8,20.8,0,0,1,8.27-8.36,24.67,24.67,0,0,1,12.31-3q8.77,0,14.5,4.21a17.87,17.87,0,0,1,7.11,11.52Z"/><path class="cls-3" d="M173.36,14.89a26.79,26.79,0,0,1,12.81,2.94A20.53,20.53,0,0,1,194.63,26a24.19,24.19,0,0,1,3,12.07,23.78,23.78,0,0,1-3,12,21.35,21.35,0,0,1-8.5,8.27,26.23,26.23,0,0,1-12.75,3H155V14.89Zm-1,35c3.77,0,6.74-1,8.89-3.08s3.23-5,3.23-8.77-1.08-6.77-3.23-8.86-5.12-3.14-8.89-3.14H167.9V49.93Z"/><path class="cls-4" d="M84.8,111.6a42.81,42.81,0,0,1-10.88-1.38,27.32,27.32,0,0,1-8.56-3.69l4.29-9.62a27.81,27.81,0,0,0,7.19,3.29,27.43,27.43,0,0,0,8,1.25q7.52,0,7.52-3.75a3.1,3.1,0,0,0-2.14-2.92,40.82,40.82,0,0,0-6.88-2,68.3,68.3,0,0,1-8.71-2.39,14.83,14.83,0,0,1-6-4.13,11.16,11.16,0,0,1-2.5-7.64A13.17,13.17,0,0,1,68.47,71a15.5,15.5,0,0,1,6.87-5.37,28.33,28.33,0,0,1,11.25-2,39.42,39.42,0,0,1,8.94,1,27.6,27.6,0,0,1,7.79,3l-4,9.69a26.8,26.8,0,0,0-12.79-3.57q-3.89,0-5.67,1.17a3.45,3.45,0,0,0-1.77,3,3,3,0,0,0,2.1,2.79,37.18,37.18,0,0,0,6.8,1.9A63.8,63.8,0,0,1,96.7,85a14.77,14.77,0,0,1,6,4.09,10.83,10.83,0,0,1,2.55,7.6,12.83,12.83,0,0,1-2.32,7.5A15.71,15.71,0,0,1,96,109.6,28.13,28.13,0,0,1,84.8,111.6Z"/><path class="cls-4" d="M130,74.39q6.65,0,10.69,4t4.06,11.91v20.42h-12.5V92.3q0-7.3-5.87-7.31a6.66,6.66,0,0,0-5.17,2.11q-1.93,2.1-1.94,6.33v17.25H106.73V61.8h12.52V78.26a13.68,13.68,0,0,1,4.8-2.87A17.21,17.21,0,0,1,130,74.39Z"/><path class="cls-4" d="M166.6,111.26a22.46,22.46,0,0,1-10.35-2.35,17.66,17.66,0,0,1-9.82-16.15,17.62,17.62,0,0,1,9.8-16,24.31,24.31,0,0,1,20.77,0,17.4,17.4,0,0,1,7.18,6.52,17.79,17.79,0,0,1,2.59,9.52,18,18,0,0,1-2.59,9.57,17.6,17.6,0,0,1-7.18,6.58A22.55,22.55,0,0,1,166.6,111.26Zm0-9.93a7,7,0,0,0,5.4-2.28,8.9,8.9,0,0,0,2.1-6.29,8.65,8.65,0,0,0-2.1-6.18,7.63,7.63,0,0,0-10.82,0,8.65,8.65,0,0,0-2.1,6.18,8.9,8.9,0,0,0,2.1,6.29A7.08,7.08,0,0,0,166.6,101.33Z"/><path class="cls-4" d="M211.12,74.39A17.56,17.56,0,0,1,220,76.66a16.49,16.49,0,0,1,6.34,6.46,21.42,21.42,0,0,1,0,19.43A16.43,16.43,0,0,1,220,109a17.46,17.46,0,0,1-8.85,2.27q-6.26,0-9.94-3.75v15.94H188.66V75h11.92v3.56Q204.08,74.39,211.12,74.39Zm-2.63,26.94a7,7,0,0,0,5.4-2.28,8.79,8.79,0,0,0,2.1-6.22,8.81,8.81,0,0,0-2.1-6.23,7.57,7.57,0,0,0-10.81,0A8.77,8.77,0,0,0,201,92.83a8.75,8.75,0,0,0,2.11,6.22A7.06,7.06,0,0,0,208.49,101.33Z"/><g class="cls-5"><g class="cls-6"><g class="cls-6"><path class="cls-4" d="M47.75,75.86a3.15,3.15,0,0,1-.37-4.21l3.07-4.14L48.35,66A11.11,11.11,0,0,1,61.61,48.13l2.1,1.55,3.08-4.14a3.18,3.18,0,0,1,4.15-.85L93.21,57.63,74.49,24.32A4.36,4.36,0,0,0,69,22.43l-6.5,2.74-1.4-3.3a15.22,15.22,0,1,0-28,11.81L34.45,37,28,39.72A4.35,4.35,0,0,0,25.46,45L41.32,99a4.52,4.52,0,0,0,6.08,2.89l19.41-8.17ZM65,31.16a1.94,1.94,0,1,1-2.54-1A1.93,1.93,0,0,1,65,31.16Zm-28.38,1a11.33,11.33,0,1,1,20.89-8.8l1.39,3.3L38.06,35.47ZM38,40.42A1.94,1.94,0,1,1,37,43,1.93,1.93,0,0,1,38,40.42Z"/></g></g></g><g class="cls-7"><g class="cls-6"><g class="cls-6"><path class="cls-4" d="M59.92,50.4a8.27,8.27,0,1,0-9.87,13.28l2.1,1.56L62,52Z"/></g></g></g><g class="cls-8"><g class="cls-6"><g class="cls-6"><path class="cls-4" d="M54,68.37a1.42,1.42,0,1,0,2-.3A1.41,1.41,0,0,0,54,68.37Z"/></g></g></g><g class="cls-9"><g class="cls-6"><g class="cls-6"><path class="cls-4" d="M67.81,54.49a1.4,1.4,0,0,0-.29-2,1.42,1.42,0,1,0,.29,2Z"/></g></g></g></svg>